<svg width="24px" height="24px" viewBox="0 0 24 24" xmlns="http://www.w3.org/2000/svg">
  <path fill="#ffffff" fill-rule="evenodd" d="M19,5 C20.6568542,5 22,6.34314575 22,8 L22,16 C22,17.6568542 20.6568542,19 19,19 L5,19 C3.34314575,19 2,17.6568542 2,16 L2,8 C2,6.34314575 3.34314575,5 5,5 L19,5 Z M19,7 L5,7 C4.44771525,7 4,7.44771525 4,8 L4,16 C4,16.5522847 4.44771525,17 5,17 L19,17 C19.5522847,17 20,16.5522847 20,16 L20,8 C20,7.44771525 19.5522847,7 19,7 Z M8,13 L8,15 L6,15 L6,13 L8,13 Z M18,13 L18,15 L16,15 L16,13 L18,13 Z M15,13 L15,15 L9,15 L9,13 L15,13 Z M8,9 L8,11 L6,11 L6,9 L8,9 Z M11,9 L11,11 L9,11 L9,9 L11,9 Z M14,9 L14,11 L12,11 L12,9 L14,9 Z M18,9 L18,11 L15,11 L15,9 L18,9 Z"/>
</svg>
