<svg width="24px" height="24px" viewBox="0 0 24 24" xmlns="http://www.w3.org/2000/svg">
  <path fill="#ffffff" fill-rule="evenodd" d="M12,19.7981496 L20.4452998,14.1679497 C20.9048285,13.8615972 21.5256978,13.9857711 21.8320503,14.4452998 C22.1165204,14.872005 22.0297714,15.4378254 21.648003,15.7617627 L21.5547002,15.8320503 L12.5547002,21.8320503 C12.2561229,22.0311018 11.8771884,22.0532186 11.560754,21.8984008 L11.4452998,21.8320503 L2.4452998,15.8320503 C1.98577112,15.5256978 1.86159725,14.9048285 2.16794971,14.4452998 C2.45241985,14.0185946 3.00808057,13.8810474 3.45393368,14.1088578 L3.5547002,14.1679497 L12,19.7981496 L20.4452998,14.1679497 L12,19.7981496 Z M12.5547002,2.16794971 L21.5547002,8.16794971 C22.1484333,8.56377175 22.1484333,9.43622825 21.5547002,9.83205029 L12.5547002,15.8320503 C12.2188008,16.0559832 11.7811992,16.0559832 11.4452998,15.8320503 L2.4452998,9.83205029 C1.85156673,9.43622825 1.85156673,8.56377175 2.4452998,8.16794971 L11.4452998,2.16794971 C11.7811992,1.94401676 12.2188008,1.94401676 12.5547002,2.16794971 Z M12,4.20185043 L4.80277564,9 L12,13.7981496 L19.1972244,9 L12,4.20185043 Z"/>
</svg>
